<?xml version="1.0" encoding="UTF-8"?>
<svg version="1.1" xmlns="http://www.w3.org/2000/svg" width="500" height="500">
<path d="M0 0 C1.34611721 0.2150303 2.69244045 0.42877921 4.0390625 0.640625 C20.13433623 3.37576956 42.30755967 8.24194564 53.9375 20.5625 C56.299194 23.92220017 57.07403661 26.85394968 57 31 C56.21164682 33.51780295 55.20732036 35.6336521 54 38 C53.34 38 52.68 38 52 38 C52 38.66 52 39.32 52 40 C38.00110918 50.94007807 20.43616409 55.84760984 3 57 C3.59735945 84.69465249 4.81499324 112.10338299 8.67895508 139.56152344 C11.05972405 156.74808639 11.05972405 156.74808639 8.5 162.1875 C-7.80723838 180.53314318 -38.1632968 182.53953143 -61 184 C-90.37668469 185.48020392 -123.35952674 183.67808237 -150 170 C-150 169.34 -150 168.68 -150 168 C-150.99 168 -151.98 168 -153 168 C-154.60546875 166.3125 -154.60546875 166.3125 -156.1875 164 C-156.71730469 163.2575 -157.24710938 162.515 -157.79296875 161.75 C-160.93318118 154.59560016 -158.32539016 145.91501477 -157.125 138.5 C-152.98522786 111.388765 -152.46098784 84.37443232 -152 57 C-152.95737061 56.89333008 -153.91474121 56.78666016 -154.90112305 56.67675781 C-162.84867212 55.71725534 -170.22872014 54.41605271 -177.8125 51.75 C-178.70976807 51.440625 -179.60703613 51.13125 -180.53149414 50.8125 C-190.49530731 47.26819689 -200.0376631 42.92467379 -205 33 C-205.1421988 29.16063232 -205.17754676 25.67983361 -204 22 C-203.34 22 -202.68 22 -202 22 C-201.67 21.01 -201.34 20.02 -201 19 C-197.55555556 16 -197.55555556 16 -195 16 C-195 15.34 -195 14.68 -195 14 C-163.82057638 1.41510793 -132.50948784 -3.45985731 -99.0625 -5.1875 C-98.24300873 -5.23038147 -97.42351746 -5.27326294 -96.57919312 -5.31744385 C-64.18067671 -6.97270325 -32.00171682 -5.53541644 0 0 Z M-112 13 C-112.83466797 13.07476562 -113.66933594 13.14953125 -114.52929688 13.2265625 C-136.94117316 14.87473992 -136.94117316 14.87473992 -156 25 C-156.21552355 26.99108683 -156.21552355 26.99108683 -155 29 C-142.01057382 37.32946954 -125.03105249 38.38990654 -110 40 C-109.09636719 40.09716309 -108.19273437 40.19432617 -107.26171875 40.29443359 C-95.99538239 41.32928672 -84.67896054 41.24180834 -73.375 41.25 C-72.28551056 41.25133942 -71.19602112 41.25267883 -70.07351685 41.25405884 C-53.48961986 41.24963724 -37.39802802 40.62168701 -21 38 C-19.41945817 37.77990054 -17.83873908 37.56106871 -16.2578125 37.34375 C-7.66672236 36.05958976 -0.50465862 33.3919309 7 29 C7 27.35 7 25.7 7 24 C1.13433784 20.84992217 -4.57010302 18.70093205 -11 17 C-12.16917969 16.67386719 -13.33835937 16.34773438 -14.54296875 16.01171875 C-20.06107224 14.64606881 -25.67118156 14.06472662 -31.3125 13.4375 C-32.46459961 13.30819092 -33.61669922 13.17888184 -34.80371094 13.0456543 C-44.53203547 11.98884506 -54.21781721 11.24148569 -64 11 C-64.83354004 10.97808594 -65.66708008 10.95617187 -66.52587891 10.93359375 C-81.76781394 10.59254728 -96.82931204 11.58312454 -112 13 Z " fill="#FDFDFD" transform="translate(325,267)"/>
<path d="M0 0 C5.22433699 3.59898771 6.33027367 8.20506743 8 14 C8.57741206 15.71034379 9.16129797 17.41850931 9.75 19.125 C15.99904399 37.87213198 21.47520664 56.91226517 26.8125 75.9375 C27.14145264 77.10212769 27.14145264 77.10212769 27.47705078 78.2902832 C29 83.76441908 29 83.76441908 29 86 C29.66 86 30.32 86 31 86 C31.15891724 85.13036621 31.15891724 85.13036621 31.32104492 84.24316406 C32.64237848 77.30633377 34.4220273 70.55068503 36.3125 63.75 C38.626389 55.30746454 40.79286054 46.85909429 42.6875 38.3125 C44.10178219 31.96223013 45.51752926 25.617176 47.125 19.3125 C47.41632813 18.15363281 47.70765625 16.99476562 48.0078125 15.80078125 C48.99642291 13.01009752 49.63691456 11.73021981 52 10 C56.22905637 8.80309725 58.30330225 8.70325837 62.375 10.4375 C65.28414305 13.27737774 65.62026726 14.82385982 65.99072266 18.78540039 C66.00649224 22.54976647 65.05741483 25.90990611 64 29.5 C63.66258789 30.71018799 63.66258789 30.71018799 63.31835938 31.94482422 C62.56240343 34.63498818 61.78274258 37.31751495 61 40 C60.42686012 41.99212329 59.85394962 43.98431259 59.28125 45.9765625 C57.8189691 51.03796332 56.33593553 56.09299511 54.84326172 61.14550781 C54.04003604 63.86447555 53.24001978 66.58436197 52.44140625 69.3046875 C51.2965936 73.20381245 50.14922348 77.10217291 49 81 C49.33 81.33 49.66 81.66 50 82 C51.31554021 80.71142987 52.62734097 79.41904109 53.9375 78.125 C55.03384766 77.04605469 55.03384766 77.04605469 56.15234375 75.9453125 C58.05667999 74.12972808 58.05667999 74.12972808 59 72 C59.66 72 60.32 72 61 72 C61 71.34 61 70.68 61 70 C61.66 70 62.32 70 63 70 C63.27199219 69.41089844 63.54398438 68.82179688 63.82421875 68.21484375 C66.7349859 62.73177075 71.59238336 58.28849187 76 54 C76.556875 53.401875 77.11375 52.80375 77.6875 52.1875 C79 51 79 51 81 51 C81.37125 50.13955078 81.37125 50.13955078 81.75 49.26171875 C83.19089331 46.65460242 84.87491979 44.89460984 87 42.8125 C87.70125 42.11769531 88.4025 41.42289063 89.125 40.70703125 C91 39 91 39 93 38 C94.54613014 38.08651631 96.08909387 38.24002636 97.625 38.4375 C98.44226563 38.53933594 99.25953125 38.64117187 100.1015625 38.74609375 C100.72804688 38.82988281 101.35453125 38.91367188 102 39 C102 39.66 102 40.32 102 41 C102.66 41 103.32 41 104 41 C104 41.66 104 42.32 104 43 C104.66 43 105.32 43 106 43 C107.23432141 48.49834082 106.9280011 52.21261134 104 57 C101.24579574 60.83193636 98.05598284 64.01781882 94.45703125 67.0546875 C89.16362855 71.64517881 84.29181775 76.63834109 79.375 81.625 C69.20491156 91.93832912 69.20491156 91.93832912 65.6015625 94.8359375 C62.98720221 97.01064561 61.02300151 99.27672874 59 102 C68.50551233 100.72220982 77.98843199 99.384147 87.4296875 97.6875 C88.69466064 97.4608667 89.95963379 97.2342334 91.26293945 97.00073242 C93.74230167 96.55163378 96.22011239 96.09385803 98.69604492 95.6262207 C114.58205966 92.75255116 114.58205966 92.75255116 121 94 C123.58673267 96.58813223 123.97453347 97.79626775 124.4375 101.5 C124 105 124 105 122.625 107.3125 C115.25494376 112.0503933 104.05640505 111.91041283 95.5625 113.0625 C94.31662109 113.23587891 93.07074219 113.40925781 91.78710938 113.58789062 C85.29361387 114.47755064 78.82116013 115.25766482 72.28491211 115.75170898 C70.0051496 115.9365913 70.0051496 115.9365913 67.88500977 116.59008789 C66 117 66 117 63 116 C63 116.66 63 117.32 63 118 C63.63035156 118.08765625 64.26070312 118.1753125 64.91015625 118.265625 C69.27834951 119.30383022 73.29348405 121.04056907 77.4375 122.75 C84.62389038 125.67488376 91.82811376 128.41912984 99.15234375 130.98046875 C102.51023998 132.18267851 105.73631887 133.5639803 109 135 C110.39519871 135.48101137 111.79105933 135.96010621 113.1875 136.4375 C116.59981528 137.72954171 118.916111 138.8741665 121 142 C121.55802097 145.90614682 121.58392818 148.05111671 119.5 151.4375 C116.02731915 153.60792553 112.94870561 153.49129244 109 153 C105.59433775 152.00369257 102.37994566 150.655658 99.125 149.25 C98.29097656 148.90195313 97.45695313 148.55390625 96.59765625 148.1953125 C94.90366861 147.48839339 93.21178195 146.77641986 91.52197266 146.05957031 C89.07703932 145.03236695 86.62093815 144.04123555 84.15625 143.0625 C78.20063053 140.69332353 72.28861202 138.22178923 66.375 135.75 C65.27542969 135.29109375 64.17585937 134.8321875 63.04296875 134.359375 C60.3617047 133.2402387 57.68072144 132.12043528 55 131 C57.18546437 133.74930486 59.37964747 136.47755356 61.6875 139.125 C64.30513639 142.15040889 66.81021389 145.25368144 69.3125 148.375 C72.2562104 151.9965059 75.282994 155.36839449 78.625 158.625 C89.35941831 169.17076421 89.35941831 169.17076421 90.75 175.3125 C90 178 90 178 87.9375 180.4375 C85 182 85 182 81.625 182.25 C76.40893803 180.45135794 74.32386395 177.2632168 71 173 C70.11676944 171.95297154 69.22843298 170.91023601 68.3359375 169.87109375 C67.41130792 168.78919103 66.4868282 167.70716022 65.5625 166.625 C65.11285889 166.10123779 64.66321777 165.57747559 64.19995117 165.0378418 C61 161.2270755 61 161.2270755 61 159 C60.34 159 59.68 159 59 159 C57.4921875 157.5390625 57.4921875 157.5390625 55.875 155.625 C55.33617187 154.99851563 54.79734375 154.37203125 54.2421875 153.7265625 C53 152 53 152 53 150 C52.34 150 51.68 150 51 150 C53.34672417 156.13610664 55.69484386 162.27135202 58.125 168.375 C58.44210937 169.17164063 58.75921875 169.96828125 59.0859375 170.7890625 C59.91998232 172.80645297 60.82614759 174.77278316 61.75 176.75 C63.07661255 180.19919263 63.56771883 182.35037896 63 186 C60.90889337 189.05623277 59.70693151 189.86463014 56.0625 190.5625 C51.89721239 189.79744717 50.71076539 188.22908174 48 185 C46.70127864 182.35314091 45.82597162 179.62580294 44.95703125 176.8125 C44.57522957 175.64231323 44.57522957 175.64231323 44.18571472 174.44848633 C43.38029669 171.97001954 42.59591009 169.48550051 41.8125 167 C41.01371976 164.51619105 40.21072834 162.03377394 39.40715027 159.55151367 C38.91026401 158.01123485 38.41700714 156.469779 37.92793274 154.92700195 C36.74978369 151.2223633 35.5051402 147.58521843 34 144 C33.87471924 144.60134766 33.74943848 145.20269531 33.62036133 145.82226562 C33.4427124 146.67498047 33.26506348 147.52769531 33.08203125 148.40625 C32.882146 149.36692383 32.68226074 150.32759766 32.47631836 151.31738281 C32.02988466 153.45776887 31.5814453 155.59773748 31.13110352 157.73730469 C29.93890145 163.41572203 28.78076409 169.09701506 27.6953125 174.796875 C27.48414795 175.87904297 27.2729834 176.96121094 27.05541992 178.07617188 C26.65001766 180.15844348 26.25653245 182.24307813 25.8762207 184.33007812 C25.08314612 188.3442294 24.49613575 191.30377658 22.1015625 194.6640625 C19.0561263 196.60000893 17.28915089 196.39027728 13.84765625 195.71484375 C12 195 12 195 9.875 192.6875 C7.57767448 183.00591387 12.26900904 171.36625242 14.625 161.9375 C15.267122 159.36425319 15.90429243 156.78992989 16.5390625 154.21484375 C16.81959473 153.09198975 17.10012695 151.96913574 17.38916016 150.81225586 C18.10612853 147.99103148 18.10612853 147.99103148 18 145 C17.00419922 146.32064453 17.00419922 146.32064453 15.98828125 147.66796875 C15.09655224 148.8412964 14.20461398 150.01446503 13.3125 151.1875 C12.87744141 151.76564453 12.44238281 152.34378906 11.99414062 152.93945312 C9.91484831 155.66563639 7.8648315 158.13353257 5.41796875 160.55078125 C2.82236063 163.1799352 1.00826446 165.90408748 -1 169 C-2.70439277 171.32737304 -4.49299203 173.57447968 -6.3125 175.8125 C-6.98442383 176.68938477 -6.98442383 176.68938477 -7.66992188 177.58398438 C-10.30307151 180.79814015 -11.5421348 181.87877198 -15.703125 182.98046875 C-19 183 -19 183 -21.4375 181.5 C-23.71829972 177.85072045 -23.8263578 176.26951532 -23 172 C-21.07482001 168.96349162 -18.76494783 166.31612531 -16.39648438 163.61767578 C-13.54092476 160.30981949 -10.81509962 156.89349663 -8.0625 153.5 C-7.19298706 152.43954468 -7.19298706 152.43954468 -6.3059082 151.35766602 C-5.76281006 150.69307373 -5.21971191 150.02848145 -4.66015625 149.34375 C-3.92744507 148.44946289 -3.92744507 148.44946289 -3.17993164 147.53710938 C-1.91750427 145.99324333 -1.91750427 145.99324333 -1 144 C-0.34 144 0.32 144 1 144 C1.2475 143.278125 1.495 142.55625 1.75 141.8125 C3.12269592 138.72393418 4.72353296 136.48988582 7 134 C7.66 134 8.32 134 9 134 C8.67 133.34 8.34 132.68 8 132 C6.77603516 132.67482422 6.77603516 132.67482422 5.52734375 133.36328125 C-4.29280127 138.71701793 -14.31326752 143.59646587 -24.43359375 148.35546875 C-27.85550657 149.96588352 -31.24156683 151.62002272 -34.59765625 153.36328125 C-35.27699219 153.70738037 -35.95632812 154.05147949 -36.65625 154.40600586 C-38.42555153 155.3053857 -40.18399054 156.22604821 -41.94140625 157.1484375 C-45 158 -45 158 -48.2734375 156.83984375 C-51.6752253 154.54436803 -52.84193938 152.9374061 -54 149 C-52.83845772 144.85163472 -51.50833125 143.34234554 -47.9375 140.9375 C-46.63193569 140.27775855 -45.31847232 139.63355164 -44 139 C-43.15050781 138.55269531 -42.30101562 138.10539063 -41.42578125 137.64453125 C-34.43277311 134 -34.43277311 134 -31 134 C-30.67 133.34 -30.34 132.68 -30 132 C-28.31689453 131.02612305 -28.31689453 131.02612305 -26.1328125 130.01171875 C-25.33399658 129.63716553 -24.53518066 129.2626123 -23.7121582 128.87670898 C-22.858396 128.48427002 -22.00463379 128.09183105 -21.125 127.6875 C-20.26543701 127.28668213 -19.40587402 126.88586426 -18.52026367 126.47290039 C-16.01679904 125.30797778 -13.5094052 124.15206157 -11 123 C-10.34821777 122.70029297 -9.69643555 122.40058594 -9.02490234 122.09179688 C-6.02281673 120.71390137 -3.01541753 119.34846762 0 118 C-0.96421875 117.93941406 -1.9284375 117.87882812 -2.921875 117.81640625 C-4.81679687 117.69072266 -4.81679687 117.69072266 -6.75 117.5625 C-8.62945312 117.44068359 -8.62945312 117.44068359 -10.546875 117.31640625 C-13.22970863 117.070581 -15.42183597 116.64605379 -18 116 C-20.88022691 115.66903666 -23.75485748 115.36952661 -26.640625 115.09765625 C-28.3685058 114.92789936 -30.09636987 114.75797206 -31.82421875 114.58789062 C-34.53380184 114.3245746 -37.24353621 114.06311579 -39.95361328 113.80493164 C-42.57899303 113.55360627 -45.20355792 113.29481288 -47.828125 113.03515625 C-49.02698334 112.92410301 -49.02698334 112.92410301 -50.25006104 112.81080627 C-62.29375683 111.60683188 -62.29375683 111.60683188 -67 108.8125 C-68.65162091 105.81893711 -68.3512742 103.33710486 -68 100 C-66.875 97.625 -66.875 97.625 -65 96 C-59.89977563 94.69001914 -55.45983177 95.23098606 -50.33984375 95.9609375 C-49.51351944 96.070961 -48.68719513 96.1809845 -47.83583069 96.29434204 C-45.20185659 96.64627469 -42.56967968 97.00990912 -39.9375 97.375 C-36.48893251 97.84606142 -33.03967892 98.31175467 -29.58984375 98.7734375 C-28.75715469 98.88544998 -27.92446564 98.99746246 -27.06654358 99.11286926 C-21.30710151 99.87153802 -15.56004463 100.42419985 -9.75927734 100.76977539 C-5.11269849 101.15746995 -0.56217121 102.05830935 4 103 C4 102.34 4 101.68 4 101 C3.401875 100.71125 2.80375 100.4225 2.1875 100.125 C0 99 0 99 -3 97 C-3 96.34 -3 95.68 -3 95 C-3.67160156 94.80148438 -4.34320313 94.60296875 -5.03515625 94.3984375 C-9.12833029 92.46779678 -12.10104996 89.64543533 -15.4375 86.625 C-19.79766783 82.70653423 -24.09871564 79.23994888 -29 76 C-30.34393588 74.6773542 -31.67690294 73.34349162 -33 72 C-35.68423426 69.8916934 -38.39747436 67.83683439 -41.13476562 65.79882812 C-44.70986796 63.09977187 -47.89227062 60.24548334 -51 57 C-51.598125 56.38125 -52.19625 55.7625 -52.8125 55.125 C-54.56237782 51.99363969 -54.31458348 49.52333502 -54 46 C-53.14455592 43.36238076 -52.49752294 42.35537353 -50.25 40.75 C-46.68439883 39.56146628 -43.51402036 39.49532655 -39.9375 40.6875 C-37.89564252 42.07069378 -36.30702054 43.67024154 -34.61328125 45.453125 C-32.55101695 47.4305019 -30.32199596 49.12702411 -28.0625 50.875 C-24.42342196 53.73695534 -21.51697295 56.59282302 -18.6484375 60.19921875 C-15.78672271 63.32540481 -12.35707018 65.76290749 -8.9765625 68.30078125 C-8.32429688 68.86152344 -7.67203125 69.42226562 -7 70 C-7 70.66 -7 71.32 -7 72 C-6.4225 72.24878906 -5.845 72.49757813 -5.25 72.75390625 C-2.68215183 74.17603049 -1.02250956 75.81623509 1 77.9375 C3.5251518 80.57608636 6.02233271 82.87974137 9 85 C8.27903431 80.08163131 6.40862938 75.70460405 4.5625 71.125 C2.41779467 65.79198015 0.55855607 60.54013049 -1 55 C-1.98773386 52.3280084 -2.98753928 49.66255465 -4 47 C-4.4815799 45.71956403 -4.96231204 44.43880886 -5.44213867 43.15771484 C-5.6821611 42.51700043 -5.92218353 41.87628601 -6.16947937 41.21615601 C-7.23727928 38.355498 -8.29597955 35.4915094 -9.35327148 32.62695312 C-9.91123992 31.1207486 -10.47278955 29.61586606 -11.0378418 28.11230469 C-11.86128438 25.91931946 -12.67203868 23.7219942 -13.48046875 21.5234375 C-13.73354294 20.85766693 -13.98661713 20.19189636 -14.24736023 19.50595093 C-15.69103983 15.53361713 -16.41212991 12.22084375 -16 8 C-14.38092222 4.99314126 -12.94422632 2.7418921 -10.25 0.625 C-6.77116699 -0.3413425 -3.53757644 -0.66241471 0 0 Z M50 148 C51 150 51 150 51 150 Z " fill="#F06C41" transform="translate(238,63)"/>
<path d="M0 0 C4.12754177 2.75169451 4.50692528 5.92908616 5.625 10.625 C8.18378934 15.04472705 13.33027409 16.4434247 18 18 C18 19.32 18 20.64 18 22 C17.39671875 22.23074219 16.7934375 22.46148437 16.171875 22.69921875 C11.25478568 24.70570843 7.76500292 26.24419498 5 31 C4.67 32.216875 4.34 33.43375 4 34.6875 C3 38 3 38 0.9375 39.20703125 C0.298125 39.46871094 -0.34125 39.73039062 -1 40 C-1.21914062 39.33613281 -1.43828125 38.67226562 -1.6640625 37.98828125 C-4.95915135 28.81293221 -9.58168396 25.54589066 -18 21 C-17.505 19.515 -17.505 19.515 -17 18 C-15.07421875 17.04296875 -15.07421875 17.04296875 -12.6875 16.1875 C-5.65485867 13.24515878 -3.74363244 7.66310735 -1 1 C-0.67 0.67 -0.34 0.34 0 0 Z " fill="#EE6D45" transform="translate(132,181)"/>
<path d="M0 0 C0.66 0.33 1.32 0.66 2 1 C2.4997401 2.58588044 2.92651798 4.19516428 3.3125 5.8125 C4.61491571 10.38397915 5.76611865 12.53844108 10 15 C11.97711651 16.04451438 13.97250996 17.05698138 16 18 C16 18.99 16 19.98 16 21 C15.38511719 21.27972656 14.77023437 21.55945313 14.13671875 21.84765625 C8.49675439 24.53513625 8.49675439 24.53513625 5.0625 29.5 C4.5365625 31.2325 4.5365625 31.2325 4 33 C3.608125 33.969375 3.21625 34.93875 2.8125 35.9375 C2.544375 36.618125 2.27625 37.29875 2 38 C0.13671875 37.7734375 0.13671875 37.7734375 -2 37 C-3.23046875 35.0390625 -3.23046875 35.0390625 -4.1875 32.625 C-4.51105469 31.83351563 -4.83460938 31.04203125 -5.16796875 30.2265625 C-5.81418799 28.49724342 -6.4162069 26.75137929 -7 25 C-7.928125 24.690625 -8.85625 24.38125 -9.8125 24.0625 C-13.2691388 22.91028707 -14.56361874 21.61607099 -17 19 C-15.87851562 18.41605469 -15.87851562 18.41605469 -14.734375 17.8203125 C-8.2223347 14.12106448 -4.8339284 11.41220334 -2.68359375 4.13671875 C-2 2 -2 2 0 0 Z " fill="#EE6F44" transform="translate(382,226)"/>
<path d="M0 0 C0.33 0.66 0.66 1.32 1 2 C1.99 2.33 2.98 2.66 4 3 C3.896875 3.886875 3.79375 4.77375 3.6875 5.6875 C3.63455356 10.85507248 5.9265252 15.33186929 7.90625 20.01171875 C9 23 9 23 9 27 C9.66 27 10.32 27 11 27 C11.33 26.34 11.66 25.68 12 25 C12.33 25.33 12.66 25.66 13 26 C14.32 22.7 15.64 19.4 17 16 C17.66 16 18.32 16 19 16 C19.40992188 17.18078125 19.81984375 18.3615625 20.2421875 19.578125 C20.78631853 21.13546552 21.3305971 22.6927545 21.875 24.25 C22.14441406 25.02730469 22.41382813 25.80460937 22.69140625 26.60546875 C22.95566406 27.35957031 23.21992188 28.11367187 23.4921875 28.890625 C23.73308105 29.58188477 23.97397461 30.27314453 24.22216797 30.98535156 C24.97445021 33.04259659 24.97445021 33.04259659 26.07080078 35.06933594 C27.42516268 37.88339109 27.38482525 39.92139804 27 43 C24.90889337 46.05623277 23.70693151 46.86463014 20.0625 47.5625 C15.89745401 46.79749155 14.7120827 45.22781261 12 42 C10.69150774 39.35371155 9.80275442 36.62614815 8.921875 33.8125 C8.66496887 33.03237549 8.40806274 32.25225098 8.14337158 31.44848633 C7.33136998 28.97002515 6.54081808 26.48529049 5.75 24 C5.20444695 22.33029666 4.65758438 20.66102058 4.109375 18.9921875 C-0.46102717 4.97137876 -0.46102717 4.97137876 -1 1 C-0.67 0.67 -0.34 0.34 0 0 Z " fill="#ED6D43" transform="translate(274,206)"/>
<path d="M0 0 C0.93423645 3.01031744 1.04449911 3.86650268 0 7 C-0.804375 7.45375 -1.60875 7.9075 -2.4375 8.375 C-5.44734958 10.2836851 -6.00395199 11.64965669 -7 15 C-5.68 15 -4.36 15 -3 15 C-2.34 15 -1.68 15 -1 15 C-1 16.32 -1 17.64 -1 19 C-0.34 19 0.32 19 1 19 C1.33 18.34 1.66 17.68 2 17 C2.99 17.66 3.98 18.32 5 19 C4.39671875 19.66386719 3.7934375 20.32773438 3.171875 21.01171875 C2.37265625 21.89472656 1.5734375 22.77773437 0.75 23.6875 C-0.03890625 24.55761719 -0.8278125 25.42773438 -1.640625 26.32421875 C-4.02414908 28.95712452 -4.02414908 28.95712452 -6.078125 31.765625 C-8 34 -8 34 -11.5 35.0625 C-15 35 -15 35 -17.4375 33.5 C-19.71829972 29.85072045 -19.8263578 28.26951532 -19 24 C-16.66684307 20.38716144 -13.80574564 17.25082504 -11 14 C-8.97517954 11.47761737 -6.98753711 8.92680784 -5 6.375 C-4.04205835 5.1533386 -3.08375697 3.93195914 -2.125 2.7109375 C-1.42375 1.81632813 -0.7225 0.92171875 0 0 Z " fill="#ED6F48" transform="translate(234,211)"/>
<path d="M0 0 C3.34362255 0.24767574 4.28573857 1.27924452 6.75 3.6875 C8.74760776 6.21047249 8.99922125 6.99158949 9.3125 10.375 C9.1578125 11.674375 9.1578125 11.674375 9 13 C5.5970516 15.09412209 2.96378615 15.57805215 -1 15 C-3.375 12.5 -3.375 12.5 -5 10 C-4.34 10 -3.68 10 -3 10 C-3.0928125 8.63875 -3.0928125 8.63875 -3.1875 7.25 C-2.98327924 3.71017358 -2.35448165 2.55068845 0 0 Z " fill="#F06A3D" transform="translate(319,228)"/>
<path d="M0 0 C5.22551504 3.59979925 6.32783024 8.20774185 8 14 C8.72126485 16.1901181 9.45060825 18.3775902 10.1875 20.5625 C10.79166667 22.375 11.39583333 24.1875 12 26 C9 26 9 26 7.3125 24.9375 C5.36276223 22.05931567 5.9381496 19.40177212 6 16 C5.34 15.34 4.68 14.68 4 14 C4.66 14 5.32 14 6 14 C3.96197865 9.93975679 3.96197865 9.93975679 0 8 C-1.1875 5.9375 -1.1875 5.9375 -2 4 C-1.67 3.67 -1.34 3.34 -1 3 C-5.06032439 2.43648573 -5.06032439 2.43648573 -9 3 C-12.44618553 6.29065697 -13.89355353 9.80779955 -14.3125 14.5 C-14.209375 15.325 -14.10625 16.15 -14 17 C-16.35620437 13.46569344 -16.48991613 12.16428713 -16 8 C-14.38092222 4.99314126 -12.94422632 2.7418921 -10.25 0.625 C-6.77116699 -0.3413425 -3.53757644 -0.66241471 0 0 Z " fill="#E5744E" transform="translate(238,63)"/>
<path d="M0 0 C0.33 0.66 0.66 1.32 1 2 C3.64 2 6.28 2 9 2 C9.36923077 6.55384615 9.36923077 6.55384615 7.5 8.8125 C6.7575 9.4003125 6.7575 9.4003125 6 10 C5.67 8.35 5.34 6.7 5 5 C2.36 5.33 -0.28 5.66 -3 6 C-3.268125 7.134375 -3.53625 8.26875 -3.8125 9.4375 C-4.204375 10.613125 -4.59625 11.78875 -5 13 C-5.99 13.33 -6.98 13.66 -8 14 C-7.67 11.69 -7.34 9.38 -7 7 C-7.74056641 7.97453125 -7.74056641 7.97453125 -8.49609375 8.96875 C-9.13675781 9.8040625 -9.77742187 10.639375 -10.4375 11.5 C-11.07558594 12.3353125 -11.71367187 13.170625 -12.37109375 14.03125 C-12.90863281 14.6809375 -13.44617188 15.330625 -14 16 C-14.33 16 -14.66 16 -15 16 C-14.67 13.36 -14.34 10.72 -14 8 C-13.01 7.67 -12.02 7.34 -11 7 C-10.67 6.01 -10.34 5.02 -10 4 C-8.4765625 2.83203125 -8.4765625 2.83203125 -6.625 1.8125 C-6.01914062 1.46832031 -5.41328125 1.12414062 -4.7890625 0.76953125 C-3 0 -3 0 0 0 Z " fill="#EB764F" transform="translate(264,200)"/>
<path d="M0 0 C1.93627769 -0.10807131 3.87427756 -0.1856225 5.8125 -0.25 C7.43091797 -0.31960937 7.43091797 -0.31960937 9.08203125 -0.390625 C12 0 12 0 13.859375 1.796875 C15.54104969 5.04504118 15.44966521 7.40267833 15 11 C13.27538131 13.77438659 11.84599439 14.74518241 8.73046875 15.68359375 C6.49329239 16.19444505 4.26470427 16.63222751 2 17 C1.67 16.34 1.34 15.68 1 15 C3.64 14.67 6.28 14.34 9 14 C8.67 13.401875 8.34 12.80375 8 12.1875 C7 10 7 10 7 7 C6.34 6.67 5.68 6.34 5 6 C6.32 4.68 7.64 3.36 9 2 C6.03 1.67 3.06 1.34 0 1 C0 0.67 0 0.34 0 0 Z " fill="#EA7755" transform="translate(347,157)"/>
<path d="M0 0 C0.66 0 1.32 0 2 0 C2.66 1.98 3.32 3.96 4 6 C4.66 6 5.32 6 6 6 C5.67 8.97 5.34 11.94 5 15 C0.82412255 16.39195915 -1.13474776 14.82323219 -5 13 C-5 11.02 -5 9.04 -5 7 C-4.0409375 6.6596875 -4.0409375 6.6596875 -3.0625 6.3125 C-0.72806339 5.14749104 -0.72806339 5.14749104 -0.25 2.375 C-0.1675 1.59125 -0.085 0.8075 0 0 Z " fill="#F0683D" transform="translate(222,229)"/>
<path d="M0 0 C1.13332764 0.12850342 2.26665527 0.25700684 3.43432617 0.3894043 C4.63677979 0.53289307 5.8392334 0.67638184 7.078125 0.82421875 C8.29411377 0.96448486 9.51010254 1.10475098 10.76293945 1.24926758 C19.2974114 2.24305032 27.8216387 3.30057748 36.328125 4.51171875 C36.328125 4.84171875 36.328125 5.17171875 36.328125 5.51171875 C34.84981279 5.70584056 33.37043184 5.89184006 31.890625 6.07421875 C31.06691406 6.17863281 30.24320313 6.28304687 29.39453125 6.390625 C28.37166016 6.45056641 28.37166016 6.45056641 27.328125 6.51171875 C26.833125 6.01671875 26.833125 6.01671875 26.328125 5.51171875 C23.46934591 5.27470636 20.62929203 5.08952693 17.765625 4.94921875 C16.95931641 4.90603516 16.15300781 4.86285156 15.32226562 4.81835938 C13.32443695 4.71196613 11.3263043 4.61130987 9.328125 4.51171875 C9.328125 4.18171875 9.328125 3.85171875 9.328125 3.51171875 C5.368125 3.51171875 1.408125 3.51171875 -2.671875 3.51171875 C-2.671875 4.17171875 -2.671875 4.83171875 -2.671875 5.51171875 C-4.651875 5.51171875 -6.631875 5.51171875 -8.671875 5.51171875 C-9.001875 4.85171875 -9.331875 4.19171875 -9.671875 3.51171875 C-9.341875 2.52171875 -9.011875 1.53171875 -8.671875 0.51171875 C-5.31782221 -0.60629885 -3.48703751 -0.40406667 0 0 Z " fill="#E37D58" transform="translate(181.671875,158.48828125)"/>
<path d="M0 0 C3.465 1.485 3.465 1.485 7 3 C7 3.99 7 4.98 7 6 C6.38511719 6.27972656 5.77023437 6.55945313 5.13671875 6.84765625 C-0.50324561 9.53513625 -0.50324561 9.53513625 -3.9375 14.5 C-4.288125 15.655 -4.63875 16.81 -5 18 C-5.391875 18.969375 -5.78375 19.93875 -6.1875 20.9375 C-6.5896875 21.9584375 -6.5896875 21.9584375 -7 23 C-8.32 22.67 -9.64 22.34 -11 22 C-11.66 19.36 -12.32 16.72 -13 14 C-12.01 14.33 -11.02 14.66 -10 15 C-9.67 16.65 -9.34 18.3 -9 20 C-6.86413322 16.79619983 -6.76867825 15.98060033 -6.875 12.3125 C-6.89304687 11.50425781 -6.91109375 10.69601563 -6.9296875 9.86328125 C-6.95289063 9.24839844 -6.97609375 8.63351563 -7 8 C-2.25 6.875 -2.25 6.875 0 8 C0 7.01 0 6.02 0 5 C0.99 4.67 1.98 4.34 3 4 C2.01 3.34 1.02 2.68 0 2 C0 1.34 0 0.68 0 0 Z " fill="#E47751" transform="translate(391,241)"/>
<path d="M0 0 C0.66 0.66 1.32 1.32 2 2 C-2.455 3.485 -2.455 3.485 -7 5 C-6.34 5.33 -5.68 5.66 -5 6 C-5.57344937 8.86724686 -5.8614515 9.8614515 -8 12 C-8.69748583 13.31747324 -9.36959957 14.64914193 -10 16 C-12.46751239 12.29873141 -12.30721156 10.37776468 -12 6 C-11.14455592 3.36238076 -10.49752294 2.35537353 -8.25 0.75 C-5.36407667 -0.21197444 -3.02202398 -0.26278469 0 0 Z " fill="#E57552" transform="translate(196,103)"/>
<path d="M0 0 C3.96460255 3.96460255 5.69161296 9.91838747 6.5 15.375 C5.84123157 18.83353427 4.89890172 20.01654093 2 22 C-0.9375 22.5625 -0.9375 22.5625 -4 22 C-6.875 19.5 -6.875 19.5 -9 17 C-8.505 15.515 -8.505 15.515 -8 14 C-7.67 14.66 -7.34 15.32 -7 16 C-6.34 16 -5.68 16 -5 16 C-5 17.32 -5 18.64 -5 20 C-2.03 19.67 0.94 19.34 4 19 C4 17.35 4 15.7 4 14 C3.34 14 2.68 14 2 14 C1.77213542 11.94921875 1.54427083 9.8984375 1.31640625 7.84765625 C1.18113386 5.98859771 1.18113386 5.98859771 0 5 C-0.04063832 3.33382885 -0.042721 1.66611905 0 0 Z " fill="#E27E5D" transform="translate(295,231)"/>
<path d="M0 0 C6.13680387 2.15617433 6.13680387 2.15617433 8 5 C8.51940701 9.08105506 8.67222913 11.12610212 6.125 14.4375 C4 16 4 16 2 16 C2.2784375 14.9790625 2.2784375 14.9790625 2.5625 13.9375 C3.09136657 10.38653873 2.7409049 7.50245953 2 4 C1.34 3.67 0.68 3.34 0 3 C0 2.01 0 1.02 0 0 Z " fill="#E97951" transform="translate(351,200)"/>
<path d="M0 0 C3.67877667 2.45251778 3.78159219 3.85741343 5 8 C6.31338776 11.7650449 7.0672325 13.0672325 10 16 C6.7 15.67 3.4 15.34 0 15 C0.29296875 12.98177083 0.5859375 10.96354167 0.87890625 8.9453125 C1.1684297 6.91859333 1.1684297 6.91859333 0 5 C-1.485 7.475 -1.485 7.475 -3 10 C-3.33 9.34 -3.66 8.68 -4 8 C-1.48571429 1.48571429 -1.48571429 1.48571429 0 0 Z M4 12 C5 14 5 14 5 14 Z " fill="#EC734E" transform="translate(132,181)"/>
<path d="M0 0 C2.97 0.33 5.94 0.66 9 1 C9 1.66 9 2.32 9 3 C9.66 3 10.32 3 11 3 C11 3.66 11 4.32 11 5 C11.66 5 12.32 5 13 5 C14.0070238 10.03511899 13.97387813 13.23947038 12 18 C10.4375 16.375 10.4375 16.375 9 14 C9.375 10.9375 9.375 10.9375 10 8 C9.67 7.01 9.34 6.02 9 5 C8.01 4.67 7.02 4.34 6 4 C6 3.34 6 2.68 6 2 C4.02 2 2.04 2 0 2 C0 1.34 0 0.68 0 0 Z " fill="#E87251" transform="translate(331,101)"/>
<path d="M0 0 C0.33 0.66 0.66 1.32 1 2 C1.99 2.33 2.98 2.66 4 3 C3.896875 3.886875 3.79375 4.77375 3.6875 5.6875 C3.64669813 9.69424319 4.99318979 12.81998745 6.5 16.5 C8.48144356 21.33918751 9.60318362 24.81262083 9 30 C5.92955836 25.39433754 4.55792945 20.22714999 2.8125 15 C2.43158203 13.89398438 2.05066406 12.78796875 1.65820312 11.6484375 C1.12549805 10.05902344 1.12549805 10.05902344 0.58203125 8.4375 C0.25436768 7.46683594 -0.0732959 6.49617187 -0.41088867 5.49609375 C-1 3 -1 3 0 0 Z " fill="#DD734E" transform="translate(274,206)"/>
<path d="M0 0 C0.33 0 0.66 0 1 0 C1.125 3.375 1.125 3.375 1 7 C0.34 7.66 -0.32 8.32 -1 9 C-1.99 9 -2.98 9 -4 9 C-3.67 10.98 -3.34 12.96 -3 15 C-1.02 15.66 0.96 16.32 3 17 C2.67 17.66 2.34 18.32 2 19 C-0.59094622 18.64987213 -2.5774211 18.26229035 -4.8125 16.875 C-6.80644858 13.72666014 -6.53914877 11.65423054 -6 8 C-4.28373664 5.07826595 -2.31797112 2.47207446 0 0 Z " fill="#E5764C" transform="translate(221,227)"/>
<path d="M0 0 C0.67417969 0.31710938 1.34835938 0.63421875 2.04296875 0.9609375 C5.53224473 2.18702391 8.62440058 2.41819069 12.3125 2.625 C14.19388672 2.73714844 14.19388672 2.73714844 16.11328125 2.8515625 C17.06589844 2.90054688 18.01851562 2.94953125 19 3 C19 2.34 19 1.68 19 1 C21.97 1.495 21.97 1.495 25 2 C24.67 2.66 24.34 3.32 24 4 C24.99 4.66 25.98 5.32 27 6 C7.21500389 6.80390503 7.21500389 6.80390503 1.6171875 1.921875 C0.81667969 0.97054687 0.81667969 0.97054687 0 0 Z " fill="#E27957" transform="translate(171,170)"/>
<path d="M0 0 C0.33 0.66 0.66 1.32 1 2 C0.34 2 -0.32 2 -1 2 C-1.19573608 3.43640171 -1.38127816 4.87419504 -1.5625 6.3125 C-1.66691406 7.11300781 -1.77132812 7.91351563 -1.87890625 8.73828125 C-2.14755178 11.16817116 -2.14755178 11.16817116 -1 14 C0.32 13.34 1.64 12.68 3 12 C3 12.66 3 13.32 3 14 C3.763125 13.649375 4.52625 13.29875 5.3125 12.9375 C8 12 8 12 11 13 C8.42047442 14.64330183 5.91167453 16.03993434 3 17 C-1.12531338 15.91029458 -2.5523769 14.61039514 -5.0625 11.1875 C-6 8 -6 8 -4.875 4.75 C-3 2 -3 2 0 0 Z " fill="#DE7F62" transform="translate(190,204)"/>
<path d="M0 0 C0.66 0 1.32 0 2 0 C1.67 2.97 1.34 5.94 1 9 C-2 10 -2 10 -5 9 C-5 9.66 -5 10.32 -5 11 C-6.32 10.67 -7.64 10.34 -9 10 C-7.88200014 8.66079162 -6.75538103 7.32877444 -5.625 6 C-4.99851562 5.2575 -4.37203125 4.515 -3.7265625 3.75 C-3.15679687 3.1725 -2.58703125 2.595 -2 2 C-1.34 2 -0.68 2 0 2 C0 1.34 0 0.68 0 0 Z " fill="#EA734A" transform="translate(299,133)"/>
<path d="M0 0 C1.875 0.25 1.875 0.25 4 1 C4.309375 1.66 4.61875 2.32 4.9375 3 C5.288125 3.66 5.63875 4.32 6 5 C8.55519921 5.81171228 8.55519921 5.81171228 11 6 C11.79953138 9.28696233 12.09658936 10.71023192 11 14 C9.66072279 12.54712339 8.32873153 11.08752741 7 9.625 C6.2575 8.81289062 5.515 8.00078125 4.75 7.1640625 C3 5 3 5 3 3 C2.34 3 1.68 3 1 3 C0.67 2.01 0.34 1.02 0 0 Z " fill="#E67C5A" transform="translate(296,219)"/>
<path d="M0 0 C2.31 0.33 4.62 0.66 7 1 C6.67 1.99 6.34 2.98 6 4 C5.34 4 4.68 4 4 4 C4 4.66 4 5.32 4 6 C3.34 6 2.68 6 2 6 C1.67 6.99 1.34 7.98 1 9 C-0.65 8.01 -2.3 7.02 -4 6 C-3.34 5.566875 -2.68 5.13375 -2 4.6875 C-1.01 3.8521875 -1.01 3.8521875 0 3 C0 2.01 0 1.02 0 0 Z " fill="#EF6C38" transform="translate(136,196)"/>
<path d="M0 0 C2 2 2 2 2.25 5.375 C2.02515633 8.63523324 1.7239511 10.30632641 0 13 C-0.66 12.67 -1.32 12.34 -2 12 C-3.425 4.6375 -3.425 4.6375 -1 1 C-0.67 0.67 -0.34 0.34 0 0 Z " fill="#EE6A3D" transform="translate(383,249)"/>
<path d="M0 0 C0.33 0 0.66 0 1 0 C1.28334695 5.95028595 0.80706376 10.34126726 -1.265625 15.9140625 C-2.19999434 18.56806904 -2.6429327 21.21487509 -3 24 C-3.66 23.67 -4.32 23.34 -5 23 C-1.92482916 7.25512528 -1.92482916 7.25512528 0 0 Z " fill="#E68063" transform="translate(254,219)"/>
<path d="M0 0 C0.93423645 3.01031744 1.04449911 3.86650268 0 7 C-0.804375 7.474375 -1.60875 7.94875 -2.4375 8.4375 C-5.15666889 10.09552981 -5.89407115 11.08436939 -7 14 C-7.66 14 -8.32 14 -9 14 C-9.33 14.99 -9.66 15.98 -10 17 C-10.66 16.34 -11.32 15.68 -12 15 C-11.21753906 14.08476562 -10.43507812 13.16953125 -9.62890625 12.2265625 C-8.60666469 11.02613205 -7.58453507 9.82560626 -6.5625 8.625 C-6.04623047 8.02171875 -5.52996094 7.4184375 -4.99804688 6.796875 C-2.21367706 3.59551296 -2.21367706 3.59551296 0 0 Z " fill="#E56F48" transform="translate(234,211)"/>
<path d="M0 0 C-3.61251516 4.56048012 -6.98797445 8.01665146 -12 11 C-11.67 9.35 -11.34 7.7 -11 6 C-9.68 6 -8.36 6 -7 6 C-7 4.68 -7 3.36 -7 2 C-7.99 1.67 -8.98 1.34 -10 1 C-3.375 -1.125 -3.375 -1.125 0 0 Z " fill="#E57D5D" transform="translate(338,124)"/>
<path d="M0 0 C2.97 0.495 2.97 0.495 6 1 C6 2.32 6 3.64 6 5 C3.36 5.99 0.72 6.98 -2 8 C-1.125 2.25 -1.125 2.25 0 0 Z " fill="#E57B54" transform="translate(144,198)"/>
<path d="M0 0 C0.66 0 1.32 0 2 0 C2.33 0.99 2.66 1.98 3 3 C1.6015625 5.26171875 1.6015625 5.26171875 -0.375 7.6875 C-1.02210938 8.49574219 -1.66921875 9.30398437 -2.3359375 10.13671875 C-2.88507813 10.75160156 -3.43421875 11.36648437 -4 12 C-4.33 12 -4.66 12 -5 12 C-4.67 9.36 -4.34 6.72 -4 4 C-3.01 3.67 -2.02 3.34 -1 3 C-0.67 2.01 -0.34 1.02 0 0 Z " fill="#EA7D5A" transform="translate(254,204)"/>
<path d="M0 0 C4.72065967 1.54269924 9.41664092 3.07794619 14 5 C14 5.99 14 6.98 14 8 C10.93015859 6.97671953 7.86402832 5.95200999 4.8125 4.875 C2.01348293 3.85146672 2.01348293 3.85146672 -1 4 C-0.67 2.68 -0.34 1.36 0 0 Z " fill="#DF7C55" transform="translate(290,190)"/>
<path d="M0 0 C0.66 0 1.32 0 2 0 C1.34 3.3 0.68 6.6 0 10 C0.99 9.34 1.98 8.68 3 8 C2.67 9.32 2.34 10.64 2 12 C0.68 12.33 -0.64 12.66 -2 13 C-2.66 11.02 -3.32 9.04 -4 7 C-3.525625 6.5875 -3.05125 6.175 -2.5625 5.75 C-0.83733482 3.817815 -0.43415125 2.51807725 0 0 Z " fill="#E47A58" transform="translate(287,136)"/>
<path d="M0 0 C0.144375 0.61875 0.28875 1.2375 0.4375 1.875 C0.93152225 4.03258322 0.93152225 4.03258322 2 6 C1.328125 8.05859375 1.328125 8.05859375 0.25 10.4375 C-0.26820313 11.61119141 -0.26820313 11.61119141 -0.796875 12.80859375 C-1.97746344 14.95895127 -3.18105555 16.37444907 -5 18 C-3.75971762 11.82777121 -2.10396411 5.93317878 0 0 Z " fill="#E4754D" transform="translate(274,130)"/>
<path d="M0 0 C0.66 0.33 1.32 0.66 2 1 C0.95833333 2.7578125 -0.08333333 4.515625 -1.125 6.2734375 C-2.15068348 7.97472667 -2.15068348 7.97472667 -2 10 C-3.96147874 11.38938077 -5.96166576 12.7260411 -8 14 C-8.66 13.67 -9.32 13.34 -10 13 C-9.34 12.01 -8.68 11.02 -8 10 C-7.34 10 -6.68 10 -6 10 C-5.7525 9.278125 -5.505 8.55625 -5.25 7.8125 C-3.89016326 4.75286734 -2.17082246 2.5326262 0 0 Z " fill="#E28360" transform="translate(245,197)"/>
<path d="M0 0 C0.66 0.33 1.32 0.66 2 1 C1.67 1.99 1.34 2.98 1 4 C2.65 4.33 4.3 4.66 6 5 C5.67 5.99 5.34 6.98 5 8 C1.59687262 6.94124926 -1.01353231 5.99097846 -4 4 C-3.67 3.01 -3.34 2.02 -3 1 C-2.01 0.67 -1.02 0.34 0 0 Z " fill="#E37A53" transform="translate(118,198)"/>
<path d="M0 0 C0 3.5556945 -1.31542272 5.17957281 -3.109375 8.1484375 C-4.38546825 10.80136821 -4.28152144 13.11440523 -4 16 C-6.35620437 12.46569344 -6.48991613 11.16428713 -6 7 C-2.84210526 1.42105263 -2.84210526 1.42105263 0 0 Z " fill="#E7835E" transform="translate(228,64)"/>
<path d="M0 0 C0.66 0 1.32 0 2 0 C2 0.66 2 1.32 2 2 C2.66 2 3.32 2 4 2 C4.125 7.75 4.125 7.75 3 10 C2.01 10 1.02 10 0 10 C0 6.66666667 0 3.33333333 0 0 Z " fill="#F0693B" transform="translate(131,208)"/>
<path d="M0 0 C0.66 0.99 1.32 1.98 2 3 C0.625 6.6875 0.625 6.6875 -1 10 C-2.32 9.67 -3.64 9.34 -5 9 C-5.66 6.36 -6.32 3.72 -7 1 C-6.01 1.33 -5.02 1.66 -4 2 C-3.67 3.65 -3.34 5.3 -3 7 C-1.25372522 4.38058783 -0.61277612 2.96175123 0 0 Z " fill="#DE8974" transform="translate(385,254)"/>
<path d="M0 0 C3.3125 0.1875 3.3125 0.1875 7 1 C8.92171842 3.41764576 10 4.88467214 10 8 C6.05205855 6.32971708 3.18203882 3.8204435 0 1 C0 0.67 0 0.34 0 0 Z " fill="#E87D57" transform="translate(222,148)"/>
<path d="M0 0 C5.53846154 0.61538462 5.53846154 0.61538462 7.875 2.5625 C8.431875 3.2740625 8.431875 3.2740625 9 4 C7.35 4 5.7 4 4 4 C4 4.99 4 5.98 4 7 C3.01 6.67 2.02 6.34 1 6 C0.67 4.02 0.34 2.04 0 0 Z " fill="#F46A40" transform="translate(387,242)"/>
<path d="M0 0 C0.99 0.66 1.98 1.32 3 2 C3.1875 5.125 3.1875 5.125 3 8 C2.01 7.01 1.02 6.02 0 5 C-1.485 7.475 -1.485 7.475 -3 10 C-3.33 9.34 -3.66 8.68 -4 8 C-1.48571429 1.48571429 -1.48571429 1.48571429 0 0 Z " fill="#E07A5B" transform="translate(132,181)"/>
<path d="M0 0 C1.65 0 3.3 0 5 0 C4.62403791 2.78211944 4.32681541 4.5879284 2.5625 6.8125 C1 8 1 8 -1 8 C-1.125 2.25 -1.125 2.25 0 0 Z " fill="#E97C56" transform="translate(296,157)"/>
<path d="M0 0 C0.99 0.33 1.98 0.66 3 1 C2.07038578 2.15224028 1.1309875 3.29659176 0.1875 4.4375 C-0.59560547 5.39462891 -0.59560547 5.39462891 -1.39453125 6.37109375 C-3 8 -3 8 -6 9 C-6 7.35 -6 5.7 -6 4 C-3.92446352 3.4465236 -2.15634036 3 0 3 C0 2.01 0 1.02 0 0 Z " fill="#E8805E" transform="translate(311,146)"/>
<path d="M0 0 C2.475 0.99 2.475 0.99 5 2 C4.979375 2.94875 4.95875 3.8975 4.9375 4.875 C4.77448174 7.90666283 4.77448174 7.90666283 6 10 C5.34 10.66 4.68 11.32 4 12 C3.33139964 10.18821242 2.66516988 8.37554984 2 6.5625 C1.62875 5.55316406 1.2575 4.54382813 0.875 3.50390625 C0 1 0 1 0 0 Z " fill="#E9815C" transform="translate(241,128)"/>
<path d="M0 0 C4.875 2.625 4.875 2.625 6 6 C3.39417629 6.93065133 2.35801776 7.14917407 -0.25 6.0625 C-0.8275 5.711875 -1.405 5.36125 -2 5 C-1.34 3.35 -0.68 1.7 0 0 Z " fill="#F16938" transform="translate(320,236)"/>
<path d="M0 0 C0 0.66 0 1.32 0 2 C-0.99 2.33 -1.98 2.66 -3 3 C-3.33 3.66 -3.66 4.32 -4 5 C-5.32 4.34 -6.64 3.68 -8 3 C-7.34 2.34 -6.68 1.68 -6 1 C-6.33 0.34 -6.66 -0.32 -7 -1 C-3.51418144 -2.2020064 -3.32007656 -2.21338437 0 0 Z " fill="#F56A40" transform="translate(379,244)"/>
<path d="M0 0 C7 7 7 7 7.125 10.125 C7.08375 11.07375 7.0425 12.0225 7 13 C6.01 13 5.02 13 4 13 C4 12.34 4 11.68 4 11 C4.66 11 5.32 11 6 11 C5.505 10.21625 5.01 9.4325 4.5 8.625 C3 6 3 6 3 4 C2.34 4 1.68 4 1 4 C0.67 2.68 0.34 1.36 0 0 Z " fill="#E1724F" transform="translate(321,228)"/>
<path d="M0 0 C0.66 0.33 1.32 0.66 2 1 C-5.0547046 6.05908096 -5.0547046 6.05908096 -9 5.8125 C-9.66 5.544375 -10.32 5.27625 -11 5 C-10.67 4.34 -10.34 3.68 -10 3 C-7.68529088 2.27129528 -5.3494053 1.60760482 -3 1 C-2.01 0.67 -1.02 0.34 0 0 Z " fill="#E4805E" transform="translate(233,199)"/>
<path d="M0 0 C2.97 0.33 5.94 0.66 9 1 C9 1.66 9 2.32 9 3 C9.66 3.33 10.32 3.66 11 4 C9.68 4.33 8.36 4.66 7 5 C6.67 4.01 6.34 3.02 6 2 C4.02 2 2.04 2 0 2 C0 1.34 0 0.68 0 0 Z " fill="#E88E76" transform="translate(331,101)"/>
<path d="M0 0 C0.78375 0.04125 1.5675 0.0825 2.375 0.125 C2.045 1.775 1.715 3.425 1.375 5.125 C0.055 5.125 -1.265 5.125 -2.625 5.125 C-2.625 4.465 -2.625 3.805 -2.625 3.125 C-3.285 2.795 -3.945 2.465 -4.625 2.125 C-2.625 0.125 -2.625 0.125 0 0 Z " fill="#F06A35" transform="translate(294.625,236.875)"/>
<path d="M0 0 C3.59634744 3.49359465 6.83451967 7.11098131 10 11 C9.01 11 8.02 11 7 11 C5.30911778 9.02043058 3.64169528 7.02054804 2 5 C1.34 5 0.68 5 0 5 C0 3.35 0 1.7 0 0 Z " fill="#E37550" transform="translate(307,212)"/>
<path d="M0 0 C0.33 0.66 0.66 1.32 1 2 C1.99 2.33 2.98 2.66 4 3 C4 4.65 4 6.3 4 8 C3.01 8.33 2.02 8.66 1 9 C0.63877119 7.68942607 0.28619689 6.37646376 -0.0625 5.0625 C-0.35833984 3.96615234 -0.35833984 3.96615234 -0.66015625 2.84765625 C-0.77230469 2.23792969 -0.88445312 1.62820312 -1 1 C-0.67 0.67 -0.34 0.34 0 0 Z " fill="#EA7F4D" transform="translate(274,206)"/>
<path d="M0 0 C0 1.65 0 3.3 0 5 C-0.66 5 -1.32 5 -2 5 C-2.66 6.32 -3.32 7.64 -4 9 C-4.66 7.68 -5.32 6.36 -6 5 C-5.34 4.67 -4.68 4.34 -4 4 C-3.67 3.01 -3.34 2.02 -3 1 C-1 0 -1 0 0 0 Z " fill="#ED6F35" transform="translate(280,123)"/>
<path d="M0 0 C0 0.66 0 1.32 0 2 C-0.66 2 -1.32 2 -2 2 C-2 2.66 -2 3.32 -2 4 C-2.66 4 -3.32 4 -4 4 C-4.66 5.32 -5.32 6.64 -6 8 C-6.66 7.01 -7.32 6.02 -8 5 C-3.375 0 -3.375 0 0 0 Z " fill="#EB7A55" transform="translate(320,114)"/>
<path d="M0 0 C0.33 0 0.66 0 1 0 C1.20625 1.11375 1.4125 2.2275 1.625 3.375 C2.61628301 7.26599195 2.61628301 7.26599195 6.125 8.4375 C7.07375 8.623125 8.0225 8.80875 9 9 C8.67 9.66 8.34 10.32 8 11 C5.40905378 10.64987213 3.4225789 10.26229035 1.1875 8.875 C-0.63883169 5.99131838 -0.18806842 3.32254207 0 0 Z " fill="#D8846C" transform="translate(215,235)"/>
<path d="M0 0 C0.66 0.33 1.32 0.66 2 1 C2.40729228 3.32156597 2.74438677 5.6568787 3 8 C2.01 8.495 2.01 8.495 1 9 C1 7.02 1 5.04 1 3 C0.34 3 -0.32 3 -1 3 C-1 3.99 -1 4.98 -1 6 C-1.66 6 -2.32 6 -3 6 C-1.125 1.125 -1.125 1.125 0 0 Z " fill="#DD7B5E" transform="translate(382,226)"/>
<path d="M0 0 C0.33 0.66 0.66 1.32 1 2 C1.763125 1.649375 2.52625 1.29875 3.3125 0.9375 C6 0 6 0 9 1 C5.04 2.98 5.04 2.98 1 5 C0.01 4.01 -0.98 3.02 -2 2 C-1.34 1.34 -0.68 0.68 0 0 Z " fill="#DE724E" transform="translate(192,216)"/>
<path d="M0 0 C-0.33 1.32 -0.66 2.64 -1 4 C-1.99 4 -2.98 4 -4 4 C-4 4.99 -4 5.98 -4 7 C-4.99 6.67 -5.98 6.34 -7 6 C-6.1875 3.5625 -6.1875 3.5625 -5 1 C-2 0 -2 0 0 0 Z " fill="#F36939" transform="translate(332,198)"/>
<path d="M0 0 C0.99 0.33 1.98 0.66 3 1 C2.34 2.32 1.68 3.64 1 5 C-0.65 5 -2.3 5 -4 5 C-4 4.01 -4 3.02 -4 2 C-2.68 2 -1.36 2 0 2 C0 1.34 0 0.68 0 0 Z " fill="#F16B42" transform="translate(123,198)"/>
<path d="M0 0 C0.33 0 0.66 0 1 0 C1.33 4.29 1.66 8.58 2 13 C-0.12920281 10.87079719 -0.51084284 9.89769567 -1.25 7.0625 C-1.44078125 6.37285156 -1.6315625 5.68320313 -1.828125 4.97265625 C-2 3 -2 3 0 0 Z " fill="#E27751" transform="translate(228,83)"/>
<path d="M0 0 C0.33 0 0.66 0 1 0 C1.04898438 0.59167969 1.09796875 1.18335938 1.1484375 1.79296875 C1.56456867 6.19104472 2.04965595 9.96928897 4 14 C3.34 14 2.68 14 2 14 C-1.27137992 8.76579213 -1.10643764 5.83394389 0 0 Z " fill="#E0886E" transform="translate(248,244)"/>
<path d="M0 0 C0.66 0.33 1.32 0.66 2 1 C0.32382616 2.92759992 -0.59772148 3.90534623 -3.125 4.5 C-3.74375 4.665 -4.3625 4.83 -5 5 C-5.33 5.99 -5.66 6.98 -6 8 C-6.66 7.01 -7.32 6.02 -8 5 C-6.71475739 4.13619741 -5.42157581 3.28419631 -4.125 2.4375 C-3.04605469 1.72400391 -3.04605469 1.72400391 -1.9453125 0.99609375 C-1.30335938 0.66738281 -0.66140625 0.33867187 0 0 Z " fill="#DF886B" transform="translate(373,240)"/>
<path d="M0 0 C0.33 0.66 0.66 1.32 1 2 C-2.69172595 5.53790403 -6.09390595 5.59115883 -11 6 C-8.61542052 4.41028035 -6.3695876 3.13258407 -3.8125 1.875 C-3.09707031 1.52179688 -2.38164062 1.16859375 -1.64453125 0.8046875 C-1.10183594 0.53914062 -0.55914062 0.27359375 0 0 Z " fill="#E48D6C" transform="translate(202,198)"/>
<path d="M0 0 C-0.66 0.66 -1.32 1.32 -2 2 C-2 2.99 -2 3.98 -2 5 C-3.32 4.34 -4.64 3.68 -6 3 C-6 2.01 -6 1.02 -6 0 C-3.50907189 -1.24546405 -2.58919267 -0.7767578 0 0 Z " fill="#E67449" transform="translate(374,245)"/>
<path d="M0 0 C1.32 0 2.64 0 4 0 C4 0.66 4 1.32 4 2 C3 3 2 4 1 5 C-0.17574711 7.09989652 -0.17574711 7.09989652 -1 9 C-1.09765625 2.84765625 -1.09765625 2.84765625 -1 1 C-0.67 0.67 -0.34 0.34 0 0 Z " fill="#E4815F" transform="translate(136,207)"/>
<path d="M0 0 C3.65316671 1.24976756 4.78065836 1.67098753 7 5 C4.69 4.67 2.38 4.34 0 4 C0 2.68 0 1.36 0 0 Z " fill="#E57F5D" transform="translate(351,200)"/>
<path d="M0 0 C3.79303725 1.00193437 6.71536341 1.81024227 10 4 C8.02 4.33 6.04 4.66 4 5 C3.67 4.01 3.34 3.02 3 2 C2.01 2 1.02 2 0 2 C0 1.34 0 0.68 0 0 Z " fill="#E17B58" transform="translate(326,191)"/>
<path d="M0 0 C0.99 0 1.98 0 3 0 C2.67 1.32 2.34 2.64 2 4 C1.34 4 0.68 4 0 4 C-0.33 5.32 -0.66 6.64 -1 8 C-2.2077558 4.37673261 -1.54311128 3.35853631 0 0 Z " fill="#E46D48" transform="translate(277,120)"/>
<path d="M0 0 C0.66 0.66 1.32 1.32 2 2 C1.34 2 0.68 2 0 2 C0.7763932 5.0745356 0.7763932 5.0745356 3 7 C2.01 7.33 1.02 7.66 0 8 C-0.99 7.34 -1.98 6.68 -3 6 C-2.01 4.02 -1.02 2.04 0 0 Z " fill="#E7704C" transform="translate(224,237)"/>
<path d="M0 0 C0.66 0.33 1.32 0.66 2 1 C2 3.31 2 5.62 2 8 C0 6.6875 0 6.6875 -2 5 C-2 4.01 -2 3.02 -2 2 C-1.34 2 -0.68 2 0 2 C0 1.34 0 0.68 0 0 Z " fill="#E5724E" transform="translate(306,225)"/>
<path d="M0 0 C1.32 0.33 2.64 0.66 4 1 C0.535 3.97 0.535 3.97 -3 7 C-3 6.01 -3 5.02 -3 4 C-2.34 4 -1.68 4 -1 4 C-0.67 2.68 -0.34 1.36 0 0 Z " fill="#DE7B58" transform="translate(318,139)"/>
<path d="M0 0 C0.33 1.32 0.66 2.64 1 4 C1.99 4 2.98 4 4 4 C4.33 3.34 4.66 2.68 5 2 C4.6875 3.9375 4.6875 3.9375 4 6 C3.01 6.33 2.02 6.66 1 7 C0.34 5.02 -0.32 3.04 -1 1 C-0.67 0.67 -0.34 0.34 0 0 Z " fill="#DF8A6E" transform="translate(130,214)"/>
<path d="M0 0 C0.33 0.99 0.66 1.98 1 3 C0.67 3.66 0.34 4.32 0 5 C-0.66 5 -1.32 5 -2 5 C-2.33 5.99 -2.66 6.98 -3 8 C-3.66 7.34 -4.32 6.68 -5 6 C-3.35 4.02 -1.7 2.04 0 0 Z " fill="#E37F5F" transform="translate(227,220)"/>
<path d="M0 0 C0 1.98 0 3.96 0 6 C-0.66 6 -1.32 6 -2 6 C-3.625 3.5 -3.625 3.5 -5 1 C-2 0 -2 0 0 0 Z " fill="#E78460" transform="translate(296,213)"/>
<path d="M0 0 C1.98 0.66 3.96 1.32 6 2 C5.67 2.66 5.34 3.32 5 4 C1.9375 4.625 1.9375 4.625 -1 5 C-0.67 3.35 -0.34 1.7 0 0 Z " fill="#E97350" transform="translate(290,190)"/>
<path d="M0 0 C1.65 1.65 3.3 3.3 5 5 C1.25 6.125 1.25 6.125 -1 5 C-0.67 3.35 -0.34 1.7 0 0 Z " fill="#E87451" transform="translate(244,146)"/>
<path d="M0 0 C0.66 0 1.32 0 2 0 C1.50351065 4.46840411 1.31012244 5.68987756 -2 9 C-1.34 6.03 -0.68 3.06 0 0 Z " fill="#E68764" transform="translate(271,139)"/>
<path d="M0 0 C0.66 0 1.32 0 2 0 C2 1.65 2 3.3 2 5 C0.35 5 -1.3 5 -3 5 C-2.67 4.01 -2.34 3.02 -2 2 C-1.34 2 -0.68 2 0 2 C0 1.34 0 0.68 0 0 Z " fill="#E87E5E" transform="translate(299,133)"/>
</svg>
